<?xml version="1.0" standalone="no"?>
<!DOCTYPE svg PUBLIC "-//W3C//DTD SVG 20010904//EN"
 "http://www.w3.org/TR/2001/REC-SVG-20010904/DTD/svg10.dtd">
<svg version="1.0" xmlns="http://www.w3.org/2000/svg"
 width="834.000000pt" height="834.000000pt" viewBox="0 0 834.000000 834.000000"
 preserveAspectRatio="xMidYMid meet">
<metadata>
Created by potrace 1.11, written by Peter Selinger 2001-2013
</metadata>
<g transform="translate(0.000000,834.000000) scale(0.100000,-0.100000)"
fill="#000000" stroke="none">
<path d="M4720 8166 c-19 -6 -44 -25 -56 -43 l-21 -31 -1 -1219 c0 -670 -1
-1224 -1 -1231 -1 -8 -20 2 -48 25 -91 75 -156 114 -250 149 -411 155 -853 -8
-1076 -398 -34 -59 -83 -206 -94 -284 -31 -206 22 -436 138 -608 172 -252 434
-388 739 -381 175 3 307 44 455 140 175 114 297 279 362 492 l27 88 2 1543 c1
849 4 1546 8 1549 11 11 175 -49 237 -86 152 -92 270 -246 305 -396 37 -158
19 -300 -54 -438 -43 -83 -131 -181 -208 -232 l-54 -36 0 -120 c0 -65 2 -119
4 -119 3 0 31 14 63 32 236 128 387 296 461 513 36 106 47 242 31 364 -46 328
-323 622 -670 709 -98 25 -251 34 -299 18z"/>
<path d="M5477 6372 c-120 -75 -233 -146 -251 -157 -18 -11 -47 -29 -64 -40
l-32 -19 -1 -633 c-1 -348 -2 -636 -3 -640 -1 -5 -6 -30 -10 -58 -33 -207
-134 -408 -285 -571 -48 -52 -176 -157 -220 -182 -13 -8 -40 -23 -60 -34 -85
-48 -235 -100 -328 -113 -21 -4 -45 -8 -54 -11 -9 -2 -70 -5 -135 -5 -214 -1
-396 51 -584 164 -36 22 -67 42 -70 46 -3 3 -21 18 -40 32 -168 125 -316 359
-379 596 l-11 42 -346 -217 c-189 -119 -384 -241 -432 -271 -48 -29 -109 -68
-137 -86 -27 -18 -178 -112 -335 -210 -334 -209 -462 -289 -510 -320 -19 -12
-91 -57 -160 -100 -69 -43 -147 -93 -175 -110 -27 -18 -65 -40 -83 -51 l-32
-18 0 -277 0 -277 1975 0 1975 0 27 54 c68 139 210 233 362 239 377 14 584
-431 330 -709 -67 -72 -130 -110 -225 -131 -183 -43 -376 50 -463 222 l-31 61
-1848 -1 -1847 -2 -57 -28 c-120 -59 -190 -165 -195 -294 -4 -149 68 -265 207
-331 32 -16 235 -17 2690 -19 l2655 -3 24 55 c31 72 117 157 198 196 249 119
545 -34 597 -309 7 -37 11 -79 10 -92 -11 -85 -18 -110 -45 -168 -52 -108
-158 -196 -279 -229 -42 -12 -171 -11 -212 2 -115 34 -207 108 -266 215 l-37
65 -2640 0 -2640 -1 -57 -26 c-75 -35 -141 -98 -175 -167 -24 -49 -28 -67 -28
-146 1 -70 6 -100 22 -137 39 -85 125 -161 215 -190 23 -7 667 -11 2161 -12
l2128 -1 35 67 c93 176 288 262 479 212 262 -68 395 -358 275 -598 -73 -145
-195 -224 -362 -234 -75 -4 -97 -1 -150 18 -113 41 -201 119 -249 220 -13 27
-31 50 -39 51 -20 1 -4491 1 -4507 0 -10 -1 -13 -63 -13 -275 l0 -275 3073 3
c2863 2 3076 3 3137 19 87 23 112 33 195 74 232 117 393 315 466 573 l24 85 0
1350 c0 1366 -2 1480 -35 1665 -5 30 -12 71 -15 90 -10 66 -16 95 -41 200
-134 556 -408 1077 -794 1504 -100 111 -332 328 -425 398 -5 4 -32 25 -60 46
-147 112 -293 204 -480 303 l-90 48 -218 -137z"/>
<path d="M5020 2927 c-19 -6 -54 -30 -77 -53 -118 -118 -67 -320 92 -363 88
-24 153 -6 216 59 44 45 58 78 64 149 6 69 -50 162 -118 196 -41 21 -132 27
-177 12z"/>
<path d="M6624 1983 c-23 -8 -58 -30 -78 -49 -144 -140 -43 -376 160 -376 36
0 114 32 143 59 85 80 84 241 -1 319 -58 53 -149 72 -224 47z"/>
<path d="M5580 1027 c-119 -63 -156 -215 -76 -320 63 -83 164 -113 257 -74 91
37 140 119 134 221 -10 150 -181 244 -315 173z"/>
</g>
</svg>
